<svg width="62" height="70" viewBox="0 0 62 70" fill="none" xmlns="http://www.w3.org/2000/svg">
<g clip-path="url(#clip0_17048_167635)">
<path d="M39.2968 65.7892C56.1834 63.5331 68.0437 48.0149 65.7876 31.1283C63.5314 14.2417 48.0132 2.38141 31.1266 4.63755C14.2401 6.89369 2.37975 22.4119 4.63589 39.2985C6.89203 56.1851 22.4103 68.0454 39.2968 65.7892Z" fill="#CBDB2A"/>
<path d="M47.7249 6.99458C51.4053 11.3412 53.9257 16.7577 54.7359 22.8215C56.992 39.708 45.1317 55.2263 28.2451 57.4824C22.3804 58.266 16.6817 57.3455 11.6451 55.1043C18.2129 62.8612 28.4734 67.214 39.2951 65.7681C56.1817 63.512 68.042 47.9938 65.7859 31.1072C64.3133 20.0853 57.1906 11.2066 47.7249 6.99458Z" fill="#CBDB2A"/>
<path d="M9.15355 41.4511C7.05886 25.7731 18.0707 11.365 33.7488 9.27032C42.9126 8.04598 51.6416 11.3005 57.7327 17.3471C51.6936 9.49224 41.7397 4.99039 31.2142 6.39665C15.5361 8.49133 4.52429 22.8994 6.61897 38.5775C7.48932 45.0918 10.4866 50.7984 14.8158 55.0959C11.8602 51.251 9.84181 46.6026 9.15355 41.4511Z" fill="#F3F3F3" fill-opacity="0.5"/>
<mask id="mask0_17048_167635" style="mask-type:luminance" maskUnits="userSpaceOnUse" x="4" y="4" width="63" height="63">
<path d="M39.2968 65.7912C56.1834 63.5351 68.0437 48.0168 65.7876 31.1302C63.5314 14.2437 48.0132 2.38336 31.1266 4.6395C14.2401 6.89565 2.37975 22.4139 4.63589 39.3005C6.89203 56.187 22.4103 68.0473 39.2968 65.7912Z" fill="white"/>
</mask>
<g mask="url(#mask0_17048_167635)">
<path d="M16.539 62.1172L14.3297 60.2902C16.4948 57.6727 18.1828 54.7208 19.3468 51.518C21.649 45.1829 21.6786 38.1399 19.4291 31.6847C17.309 25.6026 13.0612 20.2712 7.46705 16.6752L9.01788 14.2639C15.1474 18.2048 19.8073 24.0569 22.1364 30.7415C24.6021 37.8176 24.5694 45.5449 22.0413 52.4973C20.7651 56.0098 18.9137 59.2465 16.539 62.1172Z" fill="white"/>
<path d="M62.335 55.9988C59.2897 53.851 56.6538 51.2151 54.5002 48.1608C50.2366 42.1147 48.1755 34.6682 48.697 27.1931C49.1895 20.1315 52.1485 13.2615 57.0296 7.84946L59.1591 9.76907C54.7051 14.7075 52.006 20.967 51.557 27.3924C51.081 34.2118 52.9586 41 56.8431 46.5085C58.8071 49.2934 61.2108 51.6986 63.9871 53.6558L62.335 55.9988Z" fill="white"/>
</g>
<path d="M16.7799 56.8625C16.3616 57.5476 15.915 58.2161 15.4408 58.8655C16.1747 59.4786 16.937 60.0572 17.7241 60.5995C18.4649 59.5868 19.1459 58.5343 19.7638 57.4447C18.7545 57.2996 17.7588 57.1038 16.7797 56.8614L16.7799 56.8625Z" fill="#F3F3F3"/>
<path d="M61.3589 51.5633C59.6732 50.0612 58.1614 48.3697 56.8486 46.5071C55.0824 44.0018 53.7325 41.2316 52.8284 38.3142C52.329 39.5666 51.7505 40.7818 51.0955 41.9515C51.997 44.1341 53.1371 46.2201 54.5057 48.1594C56.0134 50.2975 57.759 52.2309 59.714 53.9348C60.2991 53.1705 60.8476 52.3781 61.3587 51.5622L61.3589 51.5633Z" fill="#F3F3F3"/>
</g>
<defs>
<clipPath id="clip0_17048_167635">
<rect width="61.6951" height="61.6951" fill="white" transform="translate(0.550781 8.72266) rotate(-7.60997)"/>
</clipPath>
</defs>
</svg>
