<svg width="77" height="77" viewBox="0 0 77 77" fill="none" xmlns="http://www.w3.org/2000/svg">
<rect x="0.912791" y="0.912791" width="74.8488" height="74.8488" rx="37.4244" fill="#1E1850" stroke="#1E1850" stroke-width="1.82558"/>
<path d="M52.8095 19.3571L52.2834 19.16C52.2295 19.147 52.1756 19.1377 52.1217 19.1284C51.0082 18.9146 50.4449 19.5913 50.1177 20.1211L50.1066 20.1397C49.6679 20.8851 49.2143 21.6585 48.7979 22.4355C48.2309 23.5249 47.6602 24.6142 47.0839 25.711C46.1284 27.5309 45.1413 29.4122 44.1839 31.2824C43.6838 32.262 43.1782 33.2417 42.6726 34.2195L42.654 34.2567C41.6501 36.2031 40.611 38.2163 39.6164 40.211C39.2372 40.9787 38.8673 41.7577 38.5085 42.5236C38.5494 42.1109 38.594 41.687 38.646 41.2613C38.8431 39.5715 39.1033 37.8538 39.3543 36.1919C39.5309 35.0189 39.7149 33.805 39.8748 32.6171C40.0477 31.3827 40.2262 30.1056 40.3674 28.8768L40.373 28.8211C40.4046 28.2652 40.3433 27.7633 40.2838 27.2781L40.2689 27.1852C40.1815 26.7613 39.8116 25.7556 38.2835 25.5642C37.7407 25.4879 36.9376 25.5679 36.1959 26.3988L36.1532 26.449C36.1383 26.4676 36.1234 26.4862 36.1067 26.5048L36.0974 26.516C35.9896 26.6424 35.8446 26.8152 35.7312 27.0551C35.668 27.1517 35.6048 27.2447 35.5416 27.3395L35.5155 27.3785C35.2237 27.8154 34.9207 28.2671 34.6455 28.7709C33.3424 31.0518 32.0616 33.4666 30.7584 36.1064C30.7789 35.9837 30.8012 35.861 30.8216 35.7383C31.093 34.2456 31.3868 32.803 31.6991 31.2749C31.7771 30.8957 31.8534 30.5165 31.9314 30.1354C32.2196 28.7151 31.5336 28.0068 31.1005 27.7131L31.0057 27.6555C30.5781 27.4231 30.145 27.386 29.7527 27.5458C29.0984 27.8154 28.8976 28.4883 28.7619 28.9382L28.7507 28.9754C28.4905 29.9904 28.2098 30.9831 27.9365 31.8475L27.9309 31.8679C27.3472 33.8756 26.8899 35.6156 26.4884 37.3538L26.4791 37.4021C26.3601 38.0695 26.3675 38.4691 26.7282 38.9413C26.3657 41.2464 26.0348 43.3266 25.6909 45.3752L25.6816 45.4254L25.676 45.5128C25.6723 45.5871 25.6593 45.6764 25.6425 45.7768C25.6277 45.8716 25.6109 45.9775 25.5998 46.0946L25.0439 49.7661L25.0514 49.8869C25.0588 50.0152 25.1295 50.6807 25.6909 51.1473C25.9586 51.3704 26.4252 51.6176 27.1241 51.5321C27.8101 51.4485 28.405 51.0339 28.7154 50.4149L28.7359 50.3721C28.8102 50.2048 28.8623 50.0412 28.905 49.9055C28.9311 49.8219 28.9589 49.7345 28.985 49.675L29.0128 49.6044C29.2266 49.0039 29.4367 48.3923 29.6412 47.8012L29.6468 47.7844C30.052 46.6077 30.4721 45.3919 30.922 44.2338C32.3385 40.54 34.0841 37.1065 35.6066 34.2325L35.6141 34.2195C35.6234 34.2028 35.6308 34.1861 35.6401 34.1693C35.1884 36.8221 34.8407 39.4674 34.6065 42.0569C34.3816 44.2859 34.2775 46.5185 34.1771 48.686V48.7121C34.1678 49.1471 34.1994 49.5709 34.231 49.9892C34.2459 50.1751 34.2589 50.361 34.27 50.5525L34.2756 50.6212C34.35 51.2291 34.718 51.7422 35.2534 51.9913C36.2758 52.4932 37.592 52.1586 38.2538 51.2235L38.2631 51.2087C38.5958 50.7198 38.8394 50.281 39.003 49.8795C39.0401 49.7977 39.081 49.7178 39.1238 49.6323C39.1758 49.5282 39.2298 49.4203 39.2837 49.3014C39.384 49.0932 40.8805 45.9961 42.7692 42.0978C42.8585 41.9175 44.71 38.2089 46.7586 34.2028C46.4035 35.9911 46.0968 37.6679 45.8514 39.0268C44.7862 44.5889 43.5779 50.8945 42.7692 57.1704C42.6781 57.9121 42.6205 58.665 42.5666 59.3956L42.5387 59.7544V59.786C42.5015 60.5928 42.7005 61.2657 43.128 61.7881C43.4255 62.1952 43.8958 62.4573 44.42 62.5075C44.5613 62.5205 44.7044 62.5187 44.8457 62.5019C45.2919 62.448 45.7138 62.2435 46.0243 61.9368C46.5355 61.4683 46.6303 60.7526 46.2585 60.1912C46.1451 59.9403 46.1619 59.5908 46.2306 59.1074C46.502 57.0774 46.7809 54.9768 47.1769 52.8966C47.8684 48.9835 48.4688 45.6782 49.1436 42.28C49.9765 38.1643 50.7405 34.5672 51.4767 31.2824C52.079 28.5645 52.7817 25.8226 53.462 23.1624L53.4732 23.114C53.4992 22.9895 53.5271 22.8631 53.5568 22.7367C53.6814 22.1901 53.8245 21.5729 53.7502 20.8888C53.7167 20.2196 53.3709 19.6656 52.8077 19.3589" fill="#CBDB2A"/>
<path d="M38.76 22.4135C39.4199 22.4135 40.0594 22.09 40.4907 21.5082C40.6004 21.3595 40.7138 21.1959 40.8272 21.0174C41.2733 20.3184 41.6024 19.5563 41.8068 18.7495C42.015 17.9166 42.0225 17.1099 41.8273 16.3477C41.7604 16.0874 41.6544 15.842 41.5113 15.619C40.8532 14.5928 39.5872 14.3028 38.5648 14.9479C38.2004 15.1784 37.8454 15.4814 37.5089 15.8513C36.8211 16.6061 36.3563 17.4426 36.1277 18.3349C35.8879 19.2625 35.979 20.153 36.3954 20.9784C36.7151 21.6104 37.31 22.064 38.1651 22.3243C38.3622 22.3838 38.5629 22.4135 38.76 22.4135Z" fill="#EF4626"/>
<path d="M32.9871 22.5233C33.0113 22.514 32.9871 22.5177 32.9778 22.5177C32.9685 22.5177 32.9499 22.5214 32.9351 22.5233C32.3179 22.6218 31.7267 22.8207 31.1356 23.0493C28.3732 24.135 26.003 26.1352 24.1812 28.5054C23.6997 29.1393 23.2536 29.7974 22.8427 30.4759C22.5304 30.9909 21.7403 30.6265 21.9374 30.0577C21.943 30.0428 21.9486 30.0261 21.9541 30.0112C23.4822 25.585 26.4547 21.5324 30.6337 19.2403C31.0352 19.0247 31.4498 18.8202 31.8829 18.6603C32.9778 18.2811 34.188 18.9615 34.4594 20.0861C34.7271 21.1662 34.069 22.2593 32.989 22.527" fill="#EF4626"/>
</svg>
